<mxfile host="Electron" agent="Mozilla/5.0 (X11; Linux x86_64) AppleWebKit/537.36 (KHTML, like Gecko) draw.io/26.2.2 Chrome/134.0.6998.178 Electron/35.1.2 Safari/537.36" version="26.2.2">
  <diagram id="C5RBs43oDa-KdzZeNtuy" name="Page-1">
    <mxGraphModel dx="2817" dy="1208" grid="1" gridSize="10" guides="1" tooltips="1" connect="1" arrows="1" fold="1" page="1" pageScale="1" pageWidth="827" pageHeight="1169" math="0" shadow="0">
      <root>
        <object label="" data_size="64" num_bodies="512" add_sub_cycle_time="20" mult_cycle_time="11" recip_sqrt_cycle_time="27" id="WIyWlLk6GJQsqaUBKTNV-0">
          <mxCell />
        </object>
        <mxCell id="WIyWlLk6GJQsqaUBKTNV-1" parent="WIyWlLk6GJQsqaUBKTNV-0" />
        <mxCell id="Mj_dXQXe_xVPS9inti-g-1" value="Software" style="rounded=0;whiteSpace=wrap;html=1;" parent="WIyWlLk6GJQsqaUBKTNV-1" vertex="1">
          <mxGeometry x="-240" y="50" width="150" height="80" as="geometry" />
        </mxCell>
        <mxCell id="Mj_dXQXe_xVPS9inti-g-2" value="&lt;h1 style=&quot;margin-top: 0px;&quot;&gt;&lt;span style=&quot;background-color: transparent; color: light-dark(rgb(0, 0, 0), rgb(255, 255, 255));&quot;&gt;Data Path&lt;br&gt;&lt;/span&gt;&lt;span style=&quot;font-size: 12px; font-weight: 400; background-color: transparent; color: light-dark(rgb(0, 0, 0), rgb(255, 255, 255));&quot;&gt;Outlines how data and signals for the actual simulation are passed around and computed&lt;/span&gt;&lt;/h1&gt;" style="text;html=1;whiteSpace=wrap;overflow=hidden;rounded=0;" parent="WIyWlLk6GJQsqaUBKTNV-1" vertex="1">
          <mxGeometry x="-810" y="20" width="230" height="120" as="geometry" />
        </mxCell>
        <mxCell id="Mj_dXQXe_xVPS9inti-g-30" value="" style="endArrow=classic;html=1;rounded=0;fillColor=#60a917;strokeColor=#2D7600;exitX=0.25;exitY=1;exitDx=0;exitDy=0;entryX=0.25;entryY=0;entryDx=0;entryDy=0;" parent="WIyWlLk6GJQsqaUBKTNV-1" source="Mj_dXQXe_xVPS9inti-g-1" target="Mj_dXQXe_xVPS9inti-g-42" edge="1">
          <mxGeometry relative="1" as="geometry">
            <mxPoint x="-200.00000000000023" y="130" as="sourcePoint" />
            <mxPoint x="-200" y="360" as="targetPoint" />
          </mxGeometry>
        </mxCell>
        <mxCell id="Mj_dXQXe_xVPS9inti-g-31" value="Go" style="edgeLabel;resizable=0;html=1;;align=center;verticalAlign=middle;" parent="Mj_dXQXe_xVPS9inti-g-30" connectable="0" vertex="1">
          <mxGeometry relative="1" as="geometry" />
        </mxCell>
        <mxCell id="Mj_dXQXe_xVPS9inti-g-34" value="" style="endArrow=classic;html=1;rounded=0;fillColor=#60a917;strokeColor=#2D7600;" parent="WIyWlLk6GJQsqaUBKTNV-1" edge="1">
          <mxGeometry relative="1" as="geometry">
            <mxPoint x="-810" y="170" as="sourcePoint" />
            <mxPoint x="-590" y="170" as="targetPoint" />
          </mxGeometry>
        </mxCell>
        <mxCell id="Mj_dXQXe_xVPS9inti-g-35" value="Signal" style="edgeLabel;resizable=0;html=1;;align=center;verticalAlign=middle;" parent="Mj_dXQXe_xVPS9inti-g-34" connectable="0" vertex="1">
          <mxGeometry relative="1" as="geometry" />
        </mxCell>
        <mxCell id="Mj_dXQXe_xVPS9inti-g-36" value="" style="endArrow=classic;html=1;rounded=0;" parent="WIyWlLk6GJQsqaUBKTNV-1" edge="1">
          <mxGeometry relative="1" as="geometry">
            <mxPoint x="-810" y="210" as="sourcePoint" />
            <mxPoint x="-590" y="210" as="targetPoint" />
          </mxGeometry>
        </mxCell>
        <mxCell id="Mj_dXQXe_xVPS9inti-g-37" value="Data" style="edgeLabel;resizable=0;html=1;;align=center;verticalAlign=middle;" parent="Mj_dXQXe_xVPS9inti-g-36" connectable="0" vertex="1">
          <mxGeometry relative="1" as="geometry" />
        </mxCell>
        <mxCell id="Mj_dXQXe_xVPS9inti-g-39" value="" style="endArrow=classic;html=1;rounded=0;fillColor=#60a917;strokeColor=#2D7600;exitX=0.75;exitY=1;exitDx=0;exitDy=0;entryX=0.75;entryY=0;entryDx=0;entryDy=0;" parent="WIyWlLk6GJQsqaUBKTNV-1" source="Mj_dXQXe_xVPS9inti-g-1" target="Mj_dXQXe_xVPS9inti-g-42" edge="1">
          <mxGeometry relative="1" as="geometry">
            <mxPoint x="-130.00000000000023" y="130" as="sourcePoint" />
            <mxPoint x="-130" y="360" as="targetPoint" />
          </mxGeometry>
        </mxCell>
        <mxCell id="Mj_dXQXe_xVPS9inti-g-40" value="Read" style="edgeLabel;resizable=0;html=1;;align=center;verticalAlign=middle;" parent="Mj_dXQXe_xVPS9inti-g-39" connectable="0" vertex="1">
          <mxGeometry relative="1" as="geometry" />
        </mxCell>
        <mxCell id="Mj_dXQXe_xVPS9inti-g-42" value="Accelerator Hardware Interface" style="rounded=0;whiteSpace=wrap;html=1;" parent="WIyWlLk6GJQsqaUBKTNV-1" vertex="1">
          <mxGeometry x="-240" y="300" width="150" height="80" as="geometry" />
        </mxCell>
        <mxCell id="Mj_dXQXe_xVPS9inti-g-44" value="" style="endArrow=classic;html=1;rounded=0;fillColor=#60a917;strokeColor=#2D7600;exitX=0.5;exitY=0;exitDx=0;exitDy=0;entryX=0.5;entryY=1;entryDx=0;entryDy=0;" parent="WIyWlLk6GJQsqaUBKTNV-1" source="Mj_dXQXe_xVPS9inti-g-42" target="Mj_dXQXe_xVPS9inti-g-1" edge="1">
          <mxGeometry relative="1" as="geometry">
            <mxPoint x="-165.2376190476195" y="360" as="sourcePoint" />
            <mxPoint x="-165.23761904761926" y="130" as="targetPoint" />
          </mxGeometry>
        </mxCell>
        <mxCell id="Mj_dXQXe_xVPS9inti-g-45" value="Done" style="edgeLabel;resizable=0;html=1;;align=center;verticalAlign=middle;" parent="Mj_dXQXe_xVPS9inti-g-44" connectable="0" vertex="1">
          <mxGeometry relative="1" as="geometry" />
        </mxCell>
        <mxCell id="Mj_dXQXe_xVPS9inti-g-55" value="i Body" style="swimlane;whiteSpace=wrap;html=1;dashed=1;dashPattern=12 12;" parent="WIyWlLk6GJQsqaUBKTNV-1" vertex="1">
          <mxGeometry x="-580" y="505" width="1026" height="160" as="geometry" />
        </mxCell>
        <object label="&lt;div&gt;x_pos&lt;/div&gt;&lt;div&gt;&lt;span style=&quot;background-color: transparent; color: light-dark(rgb(0, 0, 0), rgb(255, 255, 255));&quot;&gt;%data_size% bit register&lt;/span&gt;&lt;/div&gt;" placeholders="1" id="Mj_dXQXe_xVPS9inti-g-54">
          <mxCell style="rounded=0;whiteSpace=wrap;html=1;" parent="Mj_dXQXe_xVPS9inti-g-55" vertex="1">
            <mxGeometry x="30" y="40" width="170" height="95" as="geometry" />
          </mxCell>
        </object>
        <object label="&lt;div&gt;y_pos&lt;/div&gt;&lt;div&gt;&lt;span style=&quot;background-color: transparent; color: light-dark(rgb(0, 0, 0), rgb(255, 255, 255));&quot;&gt;%data_size% bit register&lt;/span&gt;&lt;/div&gt;" placeholders="1" id="uFNOIIMhj7ET_EeYBou_-7">
          <mxCell style="rounded=0;whiteSpace=wrap;html=1;" vertex="1" parent="Mj_dXQXe_xVPS9inti-g-55">
            <mxGeometry x="230" y="40" width="170" height="95" as="geometry" />
          </mxCell>
        </object>
        <object label="&lt;div&gt;x_velocity&lt;/div&gt;&lt;div&gt;&lt;span style=&quot;background-color: transparent; color: light-dark(rgb(0, 0, 0), rgb(255, 255, 255));&quot;&gt;%data_size% bit register&lt;/span&gt;&lt;/div&gt;" placeholders="1" id="uFNOIIMhj7ET_EeYBou_-6">
          <mxCell style="rounded=0;whiteSpace=wrap;html=1;" vertex="1" parent="Mj_dXQXe_xVPS9inti-g-55">
            <mxGeometry x="434" y="40" width="170" height="95" as="geometry" />
          </mxCell>
        </object>
        <object label="&lt;div&gt;y_velocity&lt;/div&gt;&lt;div&gt;&lt;span style=&quot;background-color: transparent; color: light-dark(rgb(0, 0, 0), rgb(255, 255, 255));&quot;&gt;%data_size% bit register&lt;/span&gt;&lt;/div&gt;" placeholders="1" id="uFNOIIMhj7ET_EeYBou_-5">
          <mxCell style="rounded=0;whiteSpace=wrap;html=1;" vertex="1" parent="Mj_dXQXe_xVPS9inti-g-55">
            <mxGeometry x="630" y="40" width="170" height="95" as="geometry" />
          </mxCell>
        </object>
        <object label="&lt;div&gt;&lt;span style=&quot;background-color: transparent; color: light-dark(rgb(0, 0, 0), rgb(255, 255, 255));&quot;&gt;mass&lt;/span&gt;&lt;/div&gt;&lt;div&gt;&lt;span style=&quot;background-color: transparent; color: light-dark(rgb(0, 0, 0), rgb(255, 255, 255));&quot;&gt;%data_size% bit register&lt;/span&gt;&lt;/div&gt;" placeholders="1" id="uFNOIIMhj7ET_EeYBou_-4">
          <mxCell style="rounded=0;whiteSpace=wrap;html=1;" vertex="1" parent="Mj_dXQXe_xVPS9inti-g-55">
            <mxGeometry x="830" y="40" width="170" height="95" as="geometry" />
          </mxCell>
        </object>
        <mxCell id="Mj_dXQXe_xVPS9inti-g-57" value="Input Parameters" style="swimlane;whiteSpace=wrap;html=1;dashed=1;dashPattern=12 12;" parent="WIyWlLk6GJQsqaUBKTNV-1" vertex="1">
          <mxGeometry x="-60" y="240" width="920" height="170" as="geometry" />
        </mxCell>
        <object label="&lt;div&gt;mass&lt;/div&gt;&lt;div&gt;&lt;span style=&quot;background-color: transparent; color: light-dark(rgb(0, 0, 0), rgb(255, 255, 255));&quot;&gt;%num_bodies%*%data_size% bits of memory&lt;/span&gt;&lt;/div&gt;" placeholders="1" id="Mj_dXQXe_xVPS9inti-g-6">
          <mxCell style="rounded=0;whiteSpace=wrap;html=1;" parent="Mj_dXQXe_xVPS9inti-g-57" vertex="1">
            <mxGeometry x="30" y="50" width="150" height="90" as="geometry" />
          </mxCell>
        </object>
        <object label="&lt;div&gt;x_pos&lt;/div&gt;&lt;div&gt;&lt;span style=&quot;background-color: transparent; color: light-dark(rgb(0, 0, 0), rgb(255, 255, 255));&quot;&gt;%num_bodies%*%data_size% bits of memory&lt;/span&gt;&lt;/div&gt;" placeholders="1" id="uFNOIIMhj7ET_EeYBou_-3">
          <mxCell style="rounded=0;whiteSpace=wrap;html=1;" vertex="1" parent="Mj_dXQXe_xVPS9inti-g-57">
            <mxGeometry x="210" y="50" width="150" height="90" as="geometry" />
          </mxCell>
        </object>
        <object label="&lt;div&gt;y_pos&lt;/div&gt;&lt;div&gt;&lt;span style=&quot;background-color: transparent; color: light-dark(rgb(0, 0, 0), rgb(255, 255, 255));&quot;&gt;%num_bodies%*%data_size% bits of memory&lt;/span&gt;&lt;/div&gt;" placeholders="1" id="uFNOIIMhj7ET_EeYBou_-2">
          <mxCell style="rounded=0;whiteSpace=wrap;html=1;" vertex="1" parent="Mj_dXQXe_xVPS9inti-g-57">
            <mxGeometry x="390" y="50" width="150" height="90" as="geometry" />
          </mxCell>
        </object>
        <object label="&lt;div&gt;x_velocity&lt;/div&gt;&lt;div&gt;&lt;span style=&quot;background-color: transparent; color: light-dark(rgb(0, 0, 0), rgb(255, 255, 255));&quot;&gt;%num_bodies%*%data_size% bits of memory&lt;/span&gt;&lt;/div&gt;" placeholders="1" id="uFNOIIMhj7ET_EeYBou_-1">
          <mxCell style="rounded=0;whiteSpace=wrap;html=1;" vertex="1" parent="Mj_dXQXe_xVPS9inti-g-57">
            <mxGeometry x="570" y="50" width="150" height="90" as="geometry" />
          </mxCell>
        </object>
        <object label="&lt;div&gt;y_velocity&lt;/div&gt;&lt;div&gt;&lt;span style=&quot;background-color: transparent; color: light-dark(rgb(0, 0, 0), rgb(255, 255, 255));&quot;&gt;%num_bodies%*%data_size% bits of memory&lt;/span&gt;&lt;/div&gt;" placeholders="1" id="uFNOIIMhj7ET_EeYBou_-0">
          <mxCell style="rounded=0;whiteSpace=wrap;html=1;" vertex="1" parent="Mj_dXQXe_xVPS9inti-g-57">
            <mxGeometry x="750" y="50" width="150" height="90" as="geometry" />
          </mxCell>
        </object>
        <mxCell id="Mj_dXQXe_xVPS9inti-g-71" value="" style="endArrow=classic;html=1;rounded=0;shape=flexArrow;exitX=1;exitY=0.5;exitDx=0;exitDy=0;entryX=0.5;entryY=0;entryDx=0;entryDy=0;" parent="WIyWlLk6GJQsqaUBKTNV-1" source="Mj_dXQXe_xVPS9inti-g-1" target="Mj_dXQXe_xVPS9inti-g-57" edge="1">
          <mxGeometry relative="1" as="geometry">
            <mxPoint x="-70" y="89.66" as="sourcePoint" />
            <mxPoint x="30" y="89.66" as="targetPoint" />
          </mxGeometry>
        </mxCell>
        <mxCell id="Mj_dXQXe_xVPS9inti-g-72" value="Initial values for x_pos, y_pos,&lt;div&gt;x_velocity, y_velocity and mass&lt;/div&gt;" style="edgeLabel;resizable=0;html=1;;align=center;verticalAlign=middle;" parent="Mj_dXQXe_xVPS9inti-g-71" connectable="0" vertex="1">
          <mxGeometry relative="1" as="geometry" />
        </mxCell>
        <mxCell id="Mj_dXQXe_xVPS9inti-g-75" value="" style="endArrow=classic;html=1;rounded=0;shape=flexArrow;entryX=0.5;entryY=0;entryDx=0;entryDy=0;exitX=0.25;exitY=1;exitDx=0;exitDy=0;" parent="WIyWlLk6GJQsqaUBKTNV-1" source="Mj_dXQXe_xVPS9inti-g-57" target="Mj_dXQXe_xVPS9inti-g-55" edge="1">
          <mxGeometry relative="1" as="geometry">
            <mxPoint x="40" y="410" as="sourcePoint" />
            <mxPoint x="580" y="690" as="targetPoint" />
          </mxGeometry>
        </mxCell>
        <mxCell id="Mj_dXQXe_xVPS9inti-g-76" value="Initial values for x_pos, y_pos,&lt;div&gt;x_velocity, y_velocity and mass&lt;/div&gt;" style="edgeLabel;resizable=0;html=1;;align=center;verticalAlign=middle;" parent="Mj_dXQXe_xVPS9inti-g-75" connectable="0" vertex="1">
          <mxGeometry relative="1" as="geometry" />
        </mxCell>
        <object label="&lt;div&gt;num_bodies: %num_bodies%&lt;/div&gt;&lt;div&gt;data_size: %data_size%&lt;/div&gt;&lt;div&gt;mult_cycle_time: %mult_cycle_time%&lt;/div&gt;mult_cycle_time: %mult_cycle_time%&lt;div&gt;add_sub_cycle_time: %add_sub_cycle_time%&lt;/div&gt;&lt;div&gt;recip_sqrt_cycle_time: %recip_sqrt_cycle_time%&lt;/div&gt;" placeholders="1" id="iQ0qVmi0pnjZVPIt117S-0">
          <mxCell style="text;html=1;align=center;verticalAlign=middle;resizable=0;points=[];autosize=1;strokeColor=none;fillColor=none;" parent="WIyWlLk6GJQsqaUBKTNV-1" vertex="1">
            <mxGeometry x="-775" y="250" width="160" height="100" as="geometry" />
          </mxCell>
        </object>
        <object label="&lt;div&gt;&lt;span style=&quot;background-color: transparent;&quot;&gt;&lt;font style=&quot;color: light-dark(rgb(0, 0, 0), rgb(0, 0, 0));&quot;&gt;Sub&lt;/font&gt;&lt;/span&gt;&lt;/div&gt;" placeholders="1" id="uFNOIIMhj7ET_EeYBou_-20">
          <mxCell style="ellipse;whiteSpace=wrap;html=1;fillColor=#e3c800;fontColor=#000000;strokeColor=#B09500;" vertex="1" parent="WIyWlLk6GJQsqaUBKTNV-1">
            <mxGeometry x="630" y="540" width="160" height="90" as="geometry" />
          </mxCell>
        </object>
        <object label="&lt;div&gt;&lt;span style=&quot;background-color: transparent;&quot;&gt;&lt;font style=&quot;color: light-dark(rgb(0, 0, 0), rgb(0, 0, 0));&quot;&gt;Sub&lt;/font&gt;&lt;/span&gt;&lt;/div&gt;" placeholders="1" id="uFNOIIMhj7ET_EeYBou_-21">
          <mxCell style="ellipse;whiteSpace=wrap;html=1;fillColor=#e3c800;fontColor=#000000;strokeColor=#B09500;" vertex="1" parent="WIyWlLk6GJQsqaUBKTNV-1">
            <mxGeometry x="840" y="540" width="160" height="90" as="geometry" />
          </mxCell>
        </object>
        <mxCell id="uFNOIIMhj7ET_EeYBou_-22" value="Acceleration Calculator Accelerator" style="swimlane;whiteSpace=wrap;html=1;" vertex="1" parent="WIyWlLk6GJQsqaUBKTNV-1">
          <mxGeometry x="570" y="485" width="860" height="655" as="geometry" />
        </mxCell>
        <object label="&lt;div&gt;&lt;span style=&quot;background-color: transparent;&quot;&gt;&lt;font style=&quot;color: light-dark(rgb(0, 0, 0), rgb(0, 0, 0));&quot;&gt;Sub&lt;/font&gt;&lt;/span&gt;&lt;/div&gt;" placeholders="1" id="uFNOIIMhj7ET_EeYBou_-23">
          <mxCell style="ellipse;whiteSpace=wrap;html=1;fillColor=#e3c800;fontColor=#000000;strokeColor=#B09500;" vertex="1" parent="uFNOIIMhj7ET_EeYBou_-22">
            <mxGeometry x="60" y="205" width="160" height="90" as="geometry" />
          </mxCell>
        </object>
      </root>
    </mxGraphModel>
  </diagram>
</mxfile>
